<svg width="24" height="22" viewBox="0 0 24 22" fill="none" xmlns="http://www.w3.org/2000/svg">
	<path d="M12 0C7.85158 0 3.98049 1.65674 1.64552 4.43213C1.50295 4.60205 1.48927 4.8457 1.61135 5.03027C3.47951 7.84424 5.10158 9.49902 5.8799 9.89062C5.95119 9.92627 6.02834 9.94385 6.10451 9.94385C6.24318 9.94385 6.37892 9.88623 6.47658 9.77832C6.63967 9.59619 6.87404 9.27197 7.07326 8.99268C7.97658 7.72998 9.21388 6 11.4619 6C16.8643 6 21.667 7.05469 23.2451 7.40137L23.3438 7.42285C23.4717 7.45215 23.6104 7.42773 23.7217 7.35449C23.834 7.28174 23.9121 7.16748 23.9395 7.03711C23.9805 6.84277 24 6.66748 24 6.5C24 4.11279 18.0703 0 12 0Z" fill="#94E182"/>
	<path d="M22.4473 8.25206C18.5684 7.4215 14.8721 7.00011 11.4619 7.00011C9.8584 7.00011 8.89355 8.16661 7.88477 9.57775C7.25391 10.4596 6.83594 11.0001 6.22754 11.0001C5.14844 11.0001 3.33887 9.28624 1.26172 6.29747C1.16016 6.1505 0.987305 6.07189 0.807617 6.08458C0.62793 6.1007 0.47168 6.21105 0.397461 6.37413C0.224609 6.74962 0.104492 7.06359 0.0195313 7.36242C0.0068359 7.40734 0 7.45372 0 7.50011C0 9.97911 2.47461 15.0001 4.5 15.0001H7.87012C8.29285 15.4313 8.68109 15.834 9.01465 16.1832C10.1643 17.3899 11.0051 18.2568 12 18.6883V21.5001C12 21.7765 12.2236 22.0001 12.5 22.0001H14.5C14.7764 22.0001 15 21.7765 15 21.5001V18.3873C16.1061 17.4021 17.0461 15.1963 18.3281 11.5621C18.3959 11.3693 18.4632 11.18 18.5283 10.9982C19.8569 10.9878 21.5256 10.2286 22.6904 9.10021C22.8232 8.97179 22.874 8.78038 22.8232 8.60314C22.7725 8.4254 22.6279 8.29064 22.4473 8.25206ZM15.4971 10.5714C14.2012 14.2403 13.5371 15.5152 13.2109 15.9454C12.8076 15.7877 12.2842 15.2652 11.1836 14.111C10.8593 13.7707 10.4783 13.3758 10.0663 12.9558C10.1012 12.8755 10.1365 12.7953 10.1709 12.715C10.7441 11.3805 11.3359 10.0001 13 10.0001C14.2415 10.0001 15.0113 10.1301 15.5954 10.2943L15.4971 10.5714Z" fill="#94E182"/>
</svg>